<?xml version="1.0" encoding="utf-8"?>
<svg viewBox="28.7109 12.1264 105.2883 15.2213" xmlns="http://www.w3.org/2000/svg" fill='none'>
  <path d="M43.9582 12.6846C43.1833 11.9404 41.9336 11.9404 41.1587 12.6846C38.3243 15.4068 35.4968 18.1223 32.6624 20.8444V14.0323C32.6624 12.9797 31.7758 12.1348 30.6867 12.1348C29.5976 12.1348 28.7109 12.9864 28.7109 14.0323V25.4372C28.7109 27.1335 30.8403 27.9783 32.0899 26.7782L36.6278 22.42C38.1427 23.875 39.6507 25.3232 41.1657 26.7782C41.9406 27.5224 43.1903 27.5224 43.9652 26.7782C44.7401 26.0339 44.7401 24.8338 43.9652 24.0895C42.4502 22.6346 40.9423 21.1864 39.4273 19.7314C40.9423 18.2765 42.4502 16.8282 43.9652 15.3733C44.7401 14.629 44.7401 13.4289 43.9652 12.6846H43.9582Z" fill="currentColor" transform="matrix(1, 0, 0, 1, 0, 8.881784197001252e-16)"/>
  <path d="M84.5125 12.1279C83.4165 12.1279 82.5368 12.9794 82.5368 14.0254V20.6766C82.5368 22.2522 81.2104 23.5261 79.5697 23.5261C77.9291 23.5261 76.6027 22.2522 76.6027 20.6766V14.0321C76.6027 12.9794 75.716 12.1346 74.6269 12.1346C73.5379 12.1346 72.6512 12.9861 72.6512 14.0321V20.6833C72.6512 22.2589 71.3248 23.5328 69.6842 23.5328C68.0435 23.5328 66.7171 22.2589 66.7171 20.6833V14.0321C66.7171 12.9794 65.8304 12.1346 64.7413 12.1346C63.6523 12.1346 62.7656 12.9861 62.7656 14.0321V20.6833C62.7656 26.6439 70.2985 29.594 74.6409 25.3364C78.9833 29.594 86.5162 26.6372 86.5162 20.6833V14.0321C86.5162 12.9794 85.6296 12.1346 84.5405 12.1346L84.5125 12.1279Z" fill="currentColor" transform="matrix(1, 0, 0, 1, 0, 8.881784197001252e-16)" />
  <path d="M114.196 12.1279C108.918 12.1279 106.279 14.6624 106.279 19.7312V25.4303C106.279 26.483 107.166 27.3278 108.255 27.3278C109.344 27.3278 110.231 26.4763 110.231 25.4303V19.7312C110.231 17.1968 111.55 15.9296 114.189 15.9296C115.285 15.9296 116.165 15.0781 116.165 14.0321C116.165 12.9861 115.278 12.1346 114.189 12.1346L114.196 12.1279Z" fill="currentColor" transform="matrix(1, 0, 0, 1, 0, 8.881784197001252e-16)"/>
  <path d="M52.8524 12.1279C48.4821 12.1279 44.9355 15.534 44.9355 19.7312C44.9355 23.9284 48.4821 27.3345 52.8524 27.3345C57.2227 27.3345 60.7693 23.9284 60.7693 19.7312C60.7693 15.534 57.2227 12.1279 52.8524 12.1279V12.1279ZM52.8524 23.5328C50.6672 23.5328 48.894 21.8298 48.894 19.7312C48.894 17.6326 50.6672 15.9296 52.8524 15.9296C55.0376 15.9296 56.8108 17.6326 56.8108 19.7312C56.8108 21.8298 55.0376 23.5328 52.8524 23.5328Z" fill="currentColor" transform="matrix(1, 0, 0, 1, 0, 8.881784197001252e-16)"/>
  <path d="M96.3876 12.1279C92.0172 12.1279 88.4707 15.534 88.4707 19.7312C88.4707 23.9284 92.0172 27.3345 96.3876 27.3345C100.758 27.3345 104.304 23.9284 104.304 19.7312C104.304 15.534 100.758 12.1279 96.3876 12.1279V12.1279ZM96.3876 23.5328C94.2024 23.5328 92.4291 21.8298 92.4291 19.7312C92.4291 17.6326 94.2024 15.9296 96.3876 15.9296C98.5727 15.9296 100.346 17.6326 100.346 19.7312C100.346 21.8298 98.5727 23.5328 96.3876 23.5328Z" fill="currentColor" transform="matrix(1, 0, 0, 1, 0, 8.881784197001252e-16)"/>
  <path d="M128.873 19.7314L133.411 15.3733C134.186 14.629 134.186 13.4289 133.411 12.6846C132.636 11.9404 131.387 11.9404 130.612 12.6846C127.777 15.4068 124.95 18.1223 122.116 20.8444V14.0323C122.116 12.9797 121.229 12.1348 120.14 12.1348C119.051 12.1348 118.164 12.9864 118.164 14.0323V25.4372C118.164 27.1335 120.293 27.9783 121.543 26.7782L126.081 22.42C127.596 23.875 129.104 25.3232 130.619 26.7782C131.394 27.5224 132.643 27.5224 133.418 26.7782C134.193 26.0339 134.193 24.8338 133.418 24.0895C131.903 22.6346 130.395 21.1864 128.88 19.7314H128.873Z" fill="currentColor" transform="matrix(1, 0, 0, 1, 0, 8.881784197001252e-16)"/>
</svg>
